<svg id="visual" viewBox="0 0 900 600" width="900" height="600" xmlns="http://www.w3.org/2000/svg" xmlns:xlink="http://www.w3.org/1999/xlink" version="1.1"><rect x="0" y="0" width="900" height="600" fill="#5b6e78"></rect><path d="M0 463L10.7 435.2C21.3 407.3 42.7 351.7 64.2 327.2C85.7 302.7 107.3 309.3 128.8 316.3C150.3 323.3 171.7 330.7 193 350.5C214.3 370.3 235.7 402.7 257 409C278.3 415.3 299.7 395.7 321.2 405.2C342.7 414.7 364.3 453.3 385.8 471.8C407.3 490.3 428.7 488.7 450 459C471.3 429.3 492.7 371.7 514.2 343.7C535.7 315.7 557.3 317.3 578.8 338.7C600.3 360 621.7 401 643 410.2C664.3 419.3 685.7 396.7 707 398C728.3 399.3 749.7 424.7 771.2 436.5C792.7 448.3 814.3 446.7 835.8 430.5C857.3 414.3 878.7 383.7 889.3 368.3L900 353L900 601L889.3 601C878.7 601 857.3 601 835.8 601C814.3 601 792.7 601 771.2 601C749.7 601 728.3 601 707 601C685.7 601 664.3 601 643 601C621.7 601 600.3 601 578.8 601C557.3 601 535.7 601 514.2 601C492.7 601 471.3 601 450 601C428.7 601 407.3 601 385.8 601C364.3 601 342.7 601 321.2 601C299.7 601 278.3 601 257 601C235.7 601 214.3 601 193 601C171.7 601 150.3 601 128.8 601C107.3 601 85.7 601 64.2 601C42.7 601 21.3 601 10.7 601L0 601Z" fill="#367ae0" stroke-linecap="round" stroke-linejoin="miter"></path></svg>